HIERARCHY
ROOT Hips
{
	OFFSET 0.000000 0.000000 0.000000
	CHANNELS 6 Xposition Yposition Zposition Zrotation Yrotation Xrotation 
	JOINT LHipJoint
	{
		OFFSET 0.000000 0.000000 0.000000
		CHANNELS 3 Zrotation Yrotation Xrotation
		JOINT LeftUpLeg
		{
			OFFSET 1.363060 -1.794630 0.839290
			CHANNELS 3 Zrotation Yrotation Xrotation
			JOINT LeftLeg
			{
				OFFSET 2.448110 -6.726130 0.000000
				CHANNELS 3 Zrotation Yrotation Xrotation
				JOINT LeftFoot
				{
					OFFSET 2.562200 -7.039590 0.000000
					CHANNELS 3 Zrotation Yrotation Xrotation
					JOINT LeftToeBase
					{
						OFFSET 0.157640 -0.433110 2.322550
						CHANNELS 3 Zrotation Yrotation Xrotation
						End Site
						{
							OFFSET 0.000000 0.000000 0.000000
						}
					}
				}
			}
		}
	}
	JOINT RHipJoint
	{
		OFFSET 0.000000 0.000000 0.000000
		CHANNELS 3 Zrotation Yrotation Xrotation
		JOINT RightUpLeg
		{
			OFFSET -1.305520 -1.794630 0.839290
			CHANNELS 3 Zrotation Yrotation Xrotation
			JOINT RightLeg
			{
				OFFSET -2.542530 -6.985550 0.000000
				CHANNELS 3 Zrotation Yrotation Xrotation
				JOINT RightFoot
				{
					OFFSET -2.568260 -7.056230 0.000000
					CHANNELS 3 Zrotation Yrotation Xrotation
					JOINT RightToeBase
					{
						OFFSET -0.164730 -0.452590 2.363150
						CHANNELS 3 Zrotation Yrotation Xrotation
						End Site
						{
							OFFSET 0.000000 0.000000 0.000000
						}
					}
				}
			}
		}
	}
	JOINT LowerBack
	{
		OFFSET 0.000000 0.000000 0.000000
		CHANNELS 3 Zrotation Yrotation Xrotation
		JOINT Spine
		{
			OFFSET 0.028270 2.035590 -0.193380
			CHANNELS 3 Zrotation Yrotation Xrotation
			JOINT Spine1
			{
				OFFSET 0.056720 2.048850 -0.042750
				CHANNELS 3 Zrotation Yrotation Xrotation
				JOINT Neck
				{
					OFFSET 0.000000 0.000000 0.000000
					CHANNELS 3 Zrotation Yrotation Xrotation
					JOINT Neck1
					{
						OFFSET -0.054170 1.746240 0.172020
						CHANNELS 3 Zrotation Yrotation Xrotation
						JOINT Head
						{
							OFFSET 0.104070 1.761360 -0.123970
							CHANNELS 3 Zrotation Yrotation Xrotation
							End Site
							{
								OFFSET 0.000000 0.000000 0.000000
							}
						}
					}
				}
				JOINT LeftShoulder
				{
					OFFSET 0.000000 0.000000 0.000000
					CHANNELS 3 Zrotation Yrotation Xrotation
					JOINT LeftArm
					{
						OFFSET 3.362410 1.200890 -0.311210
						CHANNELS 3 Zrotation Yrotation Xrotation
						JOINT LeftForeArm
						{
							OFFSET 4.983000 -0.000000 -0.000000
							CHANNELS 3 Zrotation Yrotation Xrotation
							JOINT LeftHand
							{
								OFFSET 3.483560 -0.000000 -0.000000
								CHANNELS 3 Zrotation Yrotation Xrotation
								JOINT LeftFingerBase
								{
									OFFSET 0.000000 0.000000 0.000000
									CHANNELS 3 Zrotation Yrotation Xrotation
									JOINT LeftHandIndex1
									{
										OFFSET 0.715260 -0.000000 -0.000000
										CHANNELS 3 Zrotation Yrotation Xrotation
										End Site
										{
											OFFSET 0.000000 0.000000 0.000000
										}
									}
								}
								JOINT LThumb
								{
									OFFSET 0.000000 0.000000 0.000000
									CHANNELS 3 Zrotation Yrotation Xrotation
									End Site
									{
										OFFSET 0.000000 0.000000 0.000000
									}
								}
							}
						}
					}
				}
				JOINT RightShoulder
				{
					OFFSET 0.000000 0.000000 0.000000
					CHANNELS 3 Zrotation Yrotation Xrotation
					JOINT RightArm
					{
						OFFSET -3.136600 1.374050 -0.404650
						CHANNELS 3 Zrotation Yrotation Xrotation
						JOINT RightForeArm
						{
							OFFSET -5.241900 -0.000000 -0.000000
							CHANNELS 3 Zrotation Yrotation Xrotation
							JOINT RightHand
							{
								OFFSET -3.444170 -0.000000 -0.000000
								CHANNELS 3 Zrotation Yrotation Xrotation
								JOINT RightFingerBase
								{
									OFFSET 0.000000 0.000000 0.000000
									CHANNELS 3 Zrotation Yrotation Xrotation
									JOINT RightHandIndex1
									{
										OFFSET -0.622530 -0.000000 -0.000000
										CHANNELS 3 Zrotation Yrotation Xrotation
										End Site
										{
											OFFSET 0.000000 0.000000 0.000000
										}
									}
								}
								JOINT RThumb
								{
									OFFSET 0.000000 0.000000 0.000000
									CHANNELS 3 Zrotation Yrotation Xrotation
									End Site
									{
										OFFSET 0.000000 0.000000 0.000000
									}
								}
							}
						}
					}
				}
			}
		}
	}
}
MOTION
Frames: 4
Frame Time: 0.008333
-3.261543 16.301707 -0.206129 -129.735306 88.598607 -98.432189 -13.708076 1.937027 -3.033126 -3.480161 7.718300 -16.211461 0.397892 2.456217 49.837823 2.657341 17.390236 8.405721 4.323500 0.000000 -38.432900 6.290792 -0.421911 2.237277 11.317853 9.047466 -59.947041 2.797761 -2.419535 35.067099 -0.573350 0.212272 -8.621268 -0.201001 -0.000000 -41.098500 8.817386 -3.192667 3.813308 1.445681 -3.488615 -2.179849 -5.309700 -3.581563 0.137297 7.268650 -2.519606 3.091932 -3.262996 -0.327062 2.649990 0.000000 0.000000 0.000000 1.485666 -8.348799 -2.460183 -79.800362 -42.176982 34.505442 -178.627256 -77.919758 179.976156 3.472583 -6.278913 -0.226449 -0.202203 0.855006 -0.000000 0.000000 0.000000 0.000000 0.000000 0.000000 0.000000 9.318937 -4.718337 4.222846 56.996160 2.986240 -0.066488 3.627191 21.452256 0.005512 5.697641 -1.156485 -0.053220 0.079886 -0.066160 -0.000000 0.000000 0.000000 0.000000 0.000000 0.000000 0.000000 
-3.030394 16.160063 -0.194586 -119.841839 88.384583 -89.026521 -13.831433 1.801671 -3.142360 -3.121365 7.839491 -16.461137 0.547768 2.605728 52.692115 2.679406 17.502041 7.064871 3.987600 0.000000 -37.579200 6.230432 -0.510638 2.033698 11.755305 9.600045 -60.605674 2.460873 -2.906283 39.916594 -0.686950 0.228286 -10.623824 -0.071200 0.000000 -37.737400 9.260266 -3.162139 4.127723 1.511216 -3.456112 -2.141685 -5.366184 -3.550665 0.003374 7.452974 -2.195633 3.109257 -3.310129 -0.329202 2.654172 0.000000 0.000000 0.000000 1.191803 -8.634041 -2.315082 -78.972615 -42.288555 33.748936 -178.541687 -77.101662 179.976859 3.398927 -6.653511 -0.234246 -0.199018 0.878423 0.000000 0.000000 0.000000 0.000000 0.000000 0.000000 0.000000 9.703565 -4.446114 4.316173 55.924446 2.886856 0.303378 3.633113 22.043461 0.005936 5.483751 -0.875205 -0.037703 0.081508 -0.068960 -0.000000 0.000000 0.000000 0.000000 0.000000 0.000000 0.000000 
-2.803740 16.024298 -0.183699 -111.202778 88.089899 -80.906554 -13.928438 1.663299 -3.279086 -2.769500 7.899024 -16.720297 0.698377 2.774626 55.561933 2.704754 17.648592 5.568312 3.615400 -0.000000 -36.638200 6.201253 -0.567400 1.807368 12.242335 10.124383 -60.951228 2.155079 -3.306015 44.360284 -0.831664 0.104457 -12.785189 0.062700 0.000000 -35.005400 9.716063 -3.126445 4.515745 1.564980 -3.412931 -2.093216 -5.467686 -3.509449 -0.152170 7.764184 -1.704424 3.193606 -3.383793 -0.332932 2.674257 0.000000 0.000000 0.000000 0.802137 -9.003684 -2.113388 -77.959552 -42.290291 32.870873 -178.471777 -76.462535 179.977573 3.341020 -7.069269 -0.243830 -0.196484 0.901989 0.000000 0.000000 0.000000 0.000000 0.000000 0.000000 0.000000 10.358568 -4.068877 4.394984 54.673280 2.859219 0.618904 3.649892 22.466499 0.006567 5.313230 -0.475753 -0.018185 0.082906 -0.071579 -0.000000 0.000000 0.000000 0.000000 0.000000 0.000000 0.000000 
-2.581516 15.897188 -0.173144 -103.897255 87.734768 -74.146397 -14.005744 1.524523 -3.443847 -2.442607 7.904635 -17.000110 0.849403 2.963127 58.423237 2.734910 17.840189 3.919383 3.205500 0.000000 -35.483800 6.195668 -0.602994 1.559166 12.779789 10.609876 -60.967331 1.891608 -3.628662 48.336538 -1.003879 -0.148993 -15.052668 0.214700 0.000000 -33.026300 10.156080 -3.087513 4.976017 1.601004 -3.359025 -2.035548 -5.618076 -3.458124 -0.329451 8.212347 -1.038371 3.348960 -3.486844 -0.338378 2.711368 0.000000 0.000000 0.000000 0.325839 -9.456100 -1.853999 -76.764106 -42.154833 31.888347 -178.420464 -76.022441 179.978140 3.311418 -7.495811 -0.255505 -0.195136 0.924282 0.000000 0.000000 0.000000 0.000000 0.000000 0.000000 0.000000 11.311793 -3.583970 4.457046 53.240602 2.900161 0.820771 3.676183 22.709052 0.007364 5.182787 0.020528 0.004532 0.084093 -0.073867 -0.000000 0.000000 0.000000 0.000000 0.000000 0.000000 0.000000 
